HIERARCHY
ROOT Hips
{
  OFFSET 40.9192 92.6879 18.85
  CHANNELS 6 Xposition Yposition Zposition Zrotation Xrotation Yrotation
  JOINT LeftUpLeg
  {
    OFFSET 8.64259 1.95398 -2.38835
    CHANNELS 3 Zrotation Xrotation Yrotation
    JOINT LeftLeg
    {
      OFFSET 43.7702 0 0
      CHANNELS 3 Zrotation Xrotation Yrotation
      JOINT LeftFoot
      {
        OFFSET 40.6238 0 0
        CHANNELS 3 Zrotation Xrotation Yrotation
        JOINT LeftToeBase
        {
          OFFSET 12.7242 0 0
          CHANNELS 3 Zrotation Xrotation Yrotation
          End Site
          {
            OFFSET 0 0 0
          }
        }
      }
    }
  }
  JOINT RightUpLeg
  {
    OFFSET -8.2249 1.95398 -2.59336
    CHANNELS 3 Zrotation Xrotation Yrotation
    JOINT RightLeg
    {
      OFFSET 43.5653 0 0
      CHANNELS 3 Zrotation Xrotation Yrotation
      JOINT RightFoot
      {
        OFFSET 40.6238 0 0
        CHANNELS 3 Zrotation Xrotation Yrotation
        JOINT RightToeBase
        {
          OFFSET 12.7242 0 0
          CHANNELS 3 Zrotation Xrotation Yrotation
          End Site
          {
            OFFSET 0 0 0
          }
        }
      }
    }
  }
  JOINT Spine
  {
    OFFSET 0.165834 0.87714 6.61349
    CHANNELS 3 Zrotation Xrotation Yrotation
    JOINT Spine1
    {
      OFFSET 7.38963 1.71661e-005 0
      CHANNELS 3 Zrotation Xrotation Yrotation
      JOINT Spine2
      {
        OFFSET 11.9445 1.14441e-005 0
        CHANNELS 3 Zrotation Xrotation Yrotation
        JOINT Spine3
        {
          OFFSET 14.7254 4.19617e-005 0
          CHANNELS 3 Zrotation Xrotation Yrotation
          JOINT Spine4
          {
            OFFSET 10.9679 0 0
            CHANNELS 3 Zrotation Xrotation Yrotation
            JOINT RightShoulder
            {
              OFFSET 2.46616 -1.6653 3.69651
              CHANNELS 3 Zrotation Xrotation Yrotation
              JOINT RightArm
              {
                OFFSET 13.0012 0 0
                CHANNELS 3 Zrotation Xrotation Yrotation
                JOINT RightForeArm
                {
                  OFFSET 28.7848 1.52588e-005 0
                  CHANNELS 3 Zrotation Xrotation Yrotation
                  JOINT RightHand
                  {
                    OFFSET 26.5688 1.52588e-005 0
                    CHANNELS 3 Zrotation Xrotation Yrotation
                    End Site
                    {
                      OFFSET 0 0 0
                    }
                  }
                }
              }
            }
            JOINT LeftShoulder
            {
              OFFSET 2.38034 -1.29275 -3.7523
              CHANNELS 3 Zrotation Xrotation Yrotation
              JOINT LeftArm
              {
                OFFSET 16.3182 6.10351e-005 0
                CHANNELS 3 Zrotation Xrotation Yrotation
                JOINT LeftForeArm
                {
                  OFFSET 27.0901 0 0
                  CHANNELS 3 Zrotation Xrotation Yrotation
                  JOINT LeftHand
                  {
                    OFFSET 24.5451 1.52588e-005 0
                    CHANNELS 3 Zrotation Xrotation Yrotation
                    End Site
                    {
                      OFFSET 0 0 0
                    }
                  }
                }
              }
            }
            JOINT Neck
            {
              OFFSET 5.0226 -0.0266342 0
              CHANNELS 3 Zrotation Xrotation Yrotation
              JOINT Head
              {
                OFFSET 6.69363 2.86102e-005 0
                CHANNELS 3 Zrotation Xrotation Yrotation
                End Site
                {
                  OFFSET 0 0 0
                }
              }
            }
          }
        }
      }
    }
  }
}
MOTION
Frames:	6
Frame Time:	0.0416667
36.9375 97.5888 -243.704 -93.1845 -84.3588 -93.2558 -171.018 3.64077 88.7955 -16.4585 13.2484 -4.04065 65.2455 5.70871 7.40641 31.733 2.37782 -0.8237 174.988 1.86398 90.4538 -15.7392 -10.8618 -1.97982 68.9351 -4.5329 -2.43077 31.2968 0.30328 -4.18815 0.179705 7.46374 -89.6933 11.9467 0.502009 0.559098 0.275725 0.526121 0.536454 -22.2591 0.310764 0.684114 -2.24641 0.310761 0.684114 92.8152 -42.8347 -97.9008 30.5017 -21.7916 1.91434 -33.8687 -24.4607 -73.9276 -6.40441 -1.17616 0.443484 -95.5442 -45.7984 69.179 -22.5242 30.7128 2.08502 27.6136 9.56539 -71.3327 10.9943 1.69948 11.1155 11.559 -5.85458 4.49117 -4.76212 -6.69357 -1.99941 
37.1161 97.6352 -243.815 -119.801 -85.9156 -120.776 -172.008 1.54304 88.202 -15.4844 14.5051 -3.52825 64.4725 5.5786 7.95097 31.692 2.35605 -0.995348 173.439 0.487736 89.94 -16.4812 -10.4459 -1.31224 69.4428 -4.54103 -2.40086 31.0552 0.328436 -4.81431 -0.139844 7.64169 -89.5564 11.5925 -0.0704602 0.888245 -0.0788005 -0.0312959 0.890472 -22.6112 -0.33415 0.826015 -2.59859 -0.334141 0.826014 92.7055 -42.2257 -98.2179 24.2971 -30.4692 -4.70296 -39.1969 -14.0732 -82.5383 7.21078 -0.876712 -10.6862 -94.3905 -45.2458 70.7845 -18.0794 37.2597 -1.96169 33.4939 0.48662 -80.6975 15.3669 1.51751 5.81747 11.1613 -8.01103 5.05942 -4.91018 -8.90828 -2.92718 
36.7911 97.6083 -243.997 -94.0254 -85.0171 -93.6639 -171.074 3.82068 89.2795 -16.6402 13.9837 -3.72419 65.2852 5.68413 7.54863 31.6275 2.27403 -0.455767 174.907 1.34029 90.7127 -15.0102 -10.3033 -1.52977 68.6397 -4.41631 -2.38496 30.8172 0.300995 -4.27632 -0.0243288 7.40203 -89.7072 12.0688 0.0898236 0.573101 0.397672 0.11496 0.568576 -22.1361 -0.086565 0.573601 -2.12347 -0.0865651 0.573595 93.34 -41.1266 -97.3664 18.3463 -36.7501 -11.8837 -23.879 -7.62885 -91.0618 18.073 -0.155439 -1.36433 -93.4794 -44.4185 71.9524 -16.3507 37.2934 -4.17206 28.6312 -8.10096 -88.6032 13.0833 0.664 1.11919 11.767 -6.85984 4.34759 -5.61263 -7.63702 -2.61739 
36.5426 97.6595 -244.015 -86.0602 -83.2479 -85.822 -170.746 4.28534 89.4688 -16.0613 12.8382 -4.12801 64.999 5.29649 7.88869 31.8333 2.44282 -0.599402 175.085 2.34963 90.7682 -15.0115 -11.8319 -1.67659 68.5907 -4.4352 -2.40309 30.3228 0.303632 -4.44976 0.0439507 7.27703 -89.7091 12.3189 0.225431 0.555238 0.6479 0.24964 0.544779 -21.8863 0.0481286 0.597307 -1.87368 0.0481357 0.597318 93.8111 -39.683 -96.8459 13.2561 -39.984 -19.8576 -20.1171 2.87191 -101.674 23.0541 -0.490052 -5.68281 -93.6524 -43.8666 71.5105 -17.3823 31.3068 -2.12457 18.9556 -11.818 -98.2693 12.5279 0.340645 -1.07356 12.1925 -3.55544 2.4599 -5.23829 -4.01741 -0.675335 
36.4315 97.6926 -243.956 -88.2939 -82.5009 -88.1045 -170.735 3.76601 89.4803 -15.6339 12.3256 -4.12886 64.7661 5.14136 7.98523 31.893 2.50877 -0.947159 175.179 2.22364 90.7574 -15.1522 -12.3521 -1.84675 68.1327 -4.23401 -2.30714 31.1992 0.30291 -4.21359 -0.024226 7.25872 -89.7424 12.356 0.0742286 0.505855 0.684912 0.0964192 0.502089 -21.8494 -0.0812343 0.504776 -1.8368 -0.0812295 0.504775 95.5575 -37.0701 -94.2134 8.77774 -41.219 -30.4754 -9.54877 7.32407 -113.797 21.5019 -0.31535 -7.44535 -93.7052 -44.4657 71.6121 -17.3718 23.8403 1.96203 10.8757 -11.3357 -105.221 11.1145 -0.196242 -5.24905 11.3772 0.153352 -0.541659 -4.01524 0.282988 2.59289 
36.2683 97.7455 -243.869 -90.8709 -81.692 -90.6259 -170.586 3.38041 89.674 -15.8503 11.3992 -4.12165 64.8053 4.88901 7.15532 32.3049 2.80292 -0.459992 175.421 1.77853 90.9119 -15.043 -12.8306 -2.08671 68.0992 -4.25349 -2.32188 30.9265 0.29731 -4.20226 -0.12848 7.23296 -89.719 12.4079 -0.121676 0.575071 0.736873 -0.0962503 0.579872 -21.7975 -0.288884 0.51192 -1.78485 -0.288884 0.511922 96.2954 -37.0536 -92.8601 6.12438 -39.0204 -39.3005 4.98271 3.94484 -123.834 21.7934 -1.59782 -15.2673 -92.9497 -44.2633 72.7404 -16.9318 17.7306 5.96047 9.934 -10.5979 -107.763 8.48965 -0.208695 -5.59798 10.0365 3.51742 -3.407 -3.60336 4.17992 4.60447 
